PathFileType	4	(X/Y/Z)	 2.2Hzlow3min.trc
DataRate	CameraRate	NumFrames	NumMarkers	Units	OrigDataRate	OrigDataStartFrame	OrigNumFrames
200	200	11	35	m	200	376	1000
Frame#	Time	C7			LSH			RSH			MAN			RASI			LASI			HIPR			HIPL			RPSI			LPSI			COX			RTHI1			RTHI2			RTHI3			RTHI4			RSHA1			RSHA2			RSHA3			RSHA4			RHEEL			RMET5			RMET1			RTOE			LTHI1			LTHI2			LTHI3			LTHI4			LSHA1			LSHA2			LSHA3			LSHA4			LHEEL			LMET5			LMET1			LTOE			
		X1	Y1	Z1	X2	Y2	Z2	X3	Y3	Z3	X4	Y4	Z4	X5	Y5	Z5	X6	Y6	Z6	X7	Y7	Z7	X8	Y8	Z8	X9	Y9	Z9	X10	Y10	Z10	X11	Y11	Z11	X12	Y12	Z12	X13	Y13	Z13	X14	Y14	Z14	X15	Y15	Z15	X16	Y16	Z16	X17	Y17	Z17	X18	Y18	Z18	X19	Y19	Z19	X20	Y20	Z20	X21	Y21	Z21	X22	Y22	Z22	X23	Y23	Z23	X24	Y24	Z24	X25	Y25	Z25	X26	Y26	Z26	X27	Y27	Z27	X28	Y28	Z28	X29	Y29	Z29	X30	Y30	Z30	X31	Y31	Z31	X32	Y32	Z32	X33	Y33	Z33	X34	Y34	Z34	X35	Y35	Z35	
376	1.8800	-0.291681	1.588852	-0.546229	-0.251436	1.558477	-0.783658	-0.237122	1.557433	-0.346871	-0.152844	1.520120	-0.565356	-0.160032	1.057435	-0.446845	-0.170545	1.052876	-0.672164	-0.214699	1.122223	-0.394092	-0.245340	1.118974	-0.722849	-0.346439	1.093358	-0.490994	-0.354358	1.092059	-0.601502	-0.357887	1.097860	-0.546154	-0.220503	0.856687	-0.360634	-0.199207	0.801476	-0.349553	-0.137993	0.818075	-0.363392	-0.151707	0.876944	-0.375649	-0.307577	0.312751	-0.350485	-0.326840	0.275473	-0.359301	-0.269512	0.255476	-0.361960	-0.255405	0.292516	-0.356083	-0.441889	0.062381	-0.417788	-0.263085	0.025207	-0.335693	-0.216285	0.041761	-0.428893	-0.183341	0.030275	-0.425015	-0.230099	0.807292	-0.762704	-0.202390	0.753106	-0.773633	-0.141886	0.777565	-0.772637	-0.161958	0.832462	-0.762253	-0.327796	0.303458	-0.754689	-0.345979	0.268651	-0.745979	-0.288095	0.243969	-0.750140	-0.276824	0.286436	-0.759996	-0.451254	0.072557	-0.677492	-0.282454	0.024538	-0.780272	-0.231102	0.042009	-0.704835	-0.196029	0.029770	-0.711211	
377	1.8850	-0.291477	1.587140	-0.546325	-0.250943	1.556635	-0.783715	-0.236902	1.555609	-0.346916	-0.152689	1.518381	-0.565324	-0.160694	1.055708	-0.446652	-0.171092	1.051025	-0.672198	-0.215578	1.120510	-0.394000	-0.246300	1.117243	-0.722849	-0.347103	1.091494	-0.491098	-0.355076	1.090128	-0.601486	-0.358202	1.095931	-0.545884	-0.220058	0.855197	-0.360496	-0.198376	0.800126	-0.349434	-0.137298	0.817118	-0.363384	-0.151413	0.875902	-0.375617	-0.305714	0.312463	-0.350658	-0.325256	0.275544	-0.359244	-0.268097	0.255050	-0.362007	-0.253749	0.292005	-0.356131	-0.441580	0.062751	-0.417850	-0.262965	0.025210	-0.335671	-0.216051	0.041752	-0.428888	-0.183075	0.030262	-0.425015	-0.228929	0.805680	-0.762793	-0.200760	0.751692	-0.773563	-0.140443	0.776558	-0.772042	-0.160938	0.831347	-0.761727	-0.326057	0.303320	-0.754200	-0.344437	0.268616	-0.745482	-0.286695	0.243602	-0.749660	-0.275181	0.286003	-0.759520	-0.450777	0.072904	-0.676850	-0.282389	0.024636	-0.780043	-0.230772	0.042025	-0.704774	-0.195738	0.029825	-0.711171	
378	1.8900	-0.291296	1.585739	-0.546433	-0.250418	1.555150	-0.783778	-0.236658	1.554108	-0.346978	-0.152528	1.516941	-0.565303	-0.161219	1.054379	-0.446439	-0.171492	1.049580	-0.672263	-0.216406	1.119166	-0.393903	-0.247183	1.116005	-0.722897	-0.347640	1.089948	-0.491222	-0.355731	1.088844	-0.601603	-0.358401	1.094327	-0.545629	-0.219480	0.854044	-0.360387	-0.197433	0.799116	-0.349322	-0.136493	0.816460	-0.363430	-0.151008	0.875149	-0.375689	-0.304019	0.312518	-0.350657	-0.323786	0.275802	-0.359157	-0.266787	0.254844	-0.362018	-0.252216	0.291734	-0.356152	-0.441245	0.063274	-0.417918	-0.262837	0.025210	-0.335648	-0.215808	0.041741	-0.428881	-0.182817	0.030249	-0.425011	-0.227737	0.804433	-0.762876	-0.199122	0.750643	-0.773490	-0.138996	0.775909	-0.771453	-0.159911	0.830609	-0.761220	-0.324383	0.303342	-0.753787	-0.342955	0.268720	-0.745064	-0.285333	0.243402	-0.749215	-0.273594	0.285738	-0.759080	-0.450288	0.073368	-0.676329	-0.282301	0.024733	-0.779822	-0.230437	0.042042	-0.704716	-0.195451	0.029882	-0.711115	
379	1.8950	-0.291148	1.584656	-0.546542	-0.249892	1.554026	-0.783843	-0.236389	1.552900	-0.347055	-0.152372	1.515812	-0.565300	-0.161579	1.053429	-0.446226	-0.171748	1.048532	-0.672350	-0.217154	1.118174	-0.393800	-0.247987	1.115159	-0.722996	-0.348027	1.088730	-0.491359	-0.356124	1.087571	-0.601641	-0.358455	1.093045	-0.545385	-0.218799	0.853234	-0.360300	-0.196418	0.798427	-0.349244	-0.135615	0.816077	-0.363522	-0.150506	0.874665	-0.375852	-0.302573	0.312809	-0.350450	-0.322488	0.276207	-0.359051	-0.265633	0.254830	-0.361980	-0.250868	0.291666	-0.356127	-0.440913	0.063882	-0.417958	-0.262715	0.025210	-0.335628	-0.215583	0.041729	-0.428872	-0.182594	0.030232	-0.424999	-0.226564	0.803531	-0.762943	-0.197537	0.749933	-0.773413	-0.137592	0.775573	-0.770905	-0.158886	0.830174	-0.760755	-0.322857	0.303471	-0.753453	-0.341599	0.268936	-0.744737	-0.284076	0.243347	-0.748822	-0.272138	0.285620	-0.758693	-0.449825	0.073905	-0.675947	-0.282199	0.024823	-0.779617	-0.230126	0.042055	-0.704660	-0.195190	0.029931	-0.711047	
380	1.9000	-0.291030	1.583904	-0.546643	-0.249372	1.553280	-0.783908	-0.236111	1.552015	-0.347147	-0.152207	1.514984	-0.565314	-0.161762	1.052857	-0.446024	-0.171842	1.047885	-0.672451	-0.217793	1.117519	-0.393696	-0.248693	1.114710	-0.723008	-0.348249	1.087852	-0.491487	-0.356177	1.086321	-0.601597	-0.358510	1.092147	-0.545325	-0.218053	0.852751	-0.360226	-0.195396	0.798057	-0.349172	-0.134713	0.815948	-0.363639	-0.149924	0.874443	-0.376039	-0.301426	0.313276	-0.350118	-0.321401	0.276724	-0.358910	-0.264682	0.254981	-0.361877	-0.249750	0.291777	-0.356045	-0.440603	0.064522	-0.417950	-0.262606	0.025208	-0.335607	-0.215391	0.041714	-0.428858	-0.182417	0.030215	-0.424980	-0.225454	0.802963	-0.762989	-0.196069	0.749535	-0.773323	-0.136291	0.775495	-0.770415	-0.157913	0.830013	-0.760360	-0.321536	0.303691	-0.753212	-0.340428	0.269235	-0.744505	-0.282988	0.243419	-0.748494	-0.270874	0.285634	-0.758371	-0.449423	0.074452	-0.675693	-0.282091	0.024907	-0.779442	-0.229861	0.042063	-0.704610	-0.194975	0.029972	-0.710976	
381	1.9050	-0.290943	1.583494	-0.546739	-0.248895	1.552903	-0.783973	-0.235845	1.551483	-0.347256	-0.152039	1.514471	-0.565343	-0.161756	1.052644	-0.445846	-0.171765	1.047627	-0.672560	-0.218301	1.117192	-0.393587	-0.249215	1.114825	-0.722907	-0.348283	1.087314	-0.491600	-0.356199	1.085833	-0.601600	-0.358503	1.091651	-0.545399	-0.217286	0.852579	-0.360157	-0.194431	0.797969	-0.349097	-0.133840	0.816038	-0.363753	-0.149295	0.874457	-0.376226	-0.300576	0.313810	-0.349762	-0.320555	0.277292	-0.358742	-0.263945	0.255275	-0.361706	-0.248890	0.292038	-0.355903	-0.440319	0.065173	-0.417879	-0.262514	0.025204	-0.335578	-0.215239	0.041694	-0.428836	-0.182288	0.030203	-0.424954	-0.224445	0.802715	-0.763012	-0.194783	0.749422	-0.773224	-0.135137	0.775633	-0.769995	-0.157010	0.830091	-0.760040	-0.320467	0.303985	-0.753068	-0.339487	0.269587	-0.744368	-0.282108	0.243596	-0.748243	-0.269849	0.285769	-0.758118	-0.449099	0.074994	-0.675585	-0.281986	0.024987	-0.779309	-0.229653	0.042062	-0.704571	-0.194813	0.030001	-0.710910	
382	1.9100	-0.290885	1.583436	-0.546826	-0.248491	1.552892	-0.784035	-0.235605	1.551337	-0.347378	-0.151868	1.514279	-0.565385	-0.161556	1.052772	-0.445705	-0.171511	1.047742	-0.672665	-0.218644	1.117188	-0.393479	-0.249540	1.114980	-0.722969	-0.348128	1.087120	-0.491681	-0.356112	1.086005	-0.601754	-0.358319	1.091475	-0.545463	-0.216548	0.852715	-0.360089	-0.193570	0.798160	-0.349012	-0.133044	0.816326	-0.363830	-0.148647	0.874693	-0.376366	-0.300075	0.314397	-0.349351	-0.319988	0.277847	-0.358598	-0.263427	0.255670	-0.361468	-0.248298	0.292408	-0.355680	-0.440065	0.065802	-0.417740	-0.262431	0.025193	-0.335541	-0.215126	0.041678	-0.428803	-0.182199	0.030198	-0.424926	-0.223570	0.802778	-0.763008	-0.193726	0.749573	-0.773120	-0.134169	0.775946	-0.769650	-0.156209	0.830374	-0.759790	-0.319687	0.304318	-0.753008	-0.338799	0.269971	-0.744322	-0.281456	0.243865	-0.748077	-0.269093	0.286002	-0.757944	-0.448861	0.075535	-0.675660	-0.281892	0.025051	-0.779223	-0.229506	0.042058	-0.704546	-0.194706	0.030017	-0.710854	
383	1.9150	-0.290855	1.583731	-0.546906	-0.248172	1.553247	-0.784093	-0.235398	1.551583	-0.347501	-0.151714	1.514439	-0.565436	-0.161166	1.053227	-0.445604	-0.171076	1.048220	-0.672759	-0.218796	1.117500	-0.393377	-0.249675	1.115226	-0.723009	-0.347785	1.087266	-0.491734	-0.355711	1.086168	-0.601800	-0.357951	1.091595	-0.545500	-0.215874	0.853143	-0.360019	-0.192863	0.798614	-0.348916	-0.132361	0.816798	-0.363839	-0.148011	0.875138	-0.376433	-0.299881	0.314979	-0.348893	-0.319673	0.278382	-0.358470	-0.263133	0.256157	-0.361159	-0.247972	0.292878	-0.355383	-0.439833	0.066409	-0.417537	-0.262350	0.025176	-0.335495	-0.215043	0.041667	-0.428757	-0.182137	0.030198	-0.424897	-0.222860	0.803129	-0.762975	-0.192927	0.749960	-0.773004	-0.133411	0.776403	-0.769380	-0.155528	0.830810	-0.759586	-0.319206	0.304680	-0.753033	-0.338373	0.270369	-0.744371	-0.281050	0.244213	-0.747998	-0.268623	0.286324	-0.757853	-0.448707	0.076053	-0.675895	-0.281806	0.025094	-0.779189	-0.229420	0.042051	-0.704537	-0.194647	0.030022	-0.710810	
384	1.9200	-0.290851	1.584377	-0.546984	-0.247946	1.553968	-0.784148	-0.235237	1.552225	-0.347618	-0.151580	1.514963	-0.565493	-0.160600	1.054010	-0.445543	-0.170459	1.049049	-0.672824	-0.218730	1.118126	-0.393287	-0.249616	1.115660	-0.723020	-0.347258	1.087750	-0.491754	-0.355020	1.086286	-0.601724	-0.357402	1.092022	-0.545509	-0.215281	0.853851	-0.359959	-0.192333	0.799326	-0.348794	-0.131813	0.817439	-0.363768	-0.147408	0.875783	-0.376416	-0.299926	0.315535	-0.348559	-0.319607	0.278842	-0.358362	-0.263051	0.256736	-0.360790	-0.247899	0.293454	-0.355012	-0.439623	0.067013	-0.417293	-0.262269	0.025152	-0.335436	-0.214983	0.041661	-0.428699	-0.182096	0.030201	-0.424869	-0.222327	0.803757	-0.762907	-0.192404	0.750572	-0.772873	-0.132880	0.776992	-0.769183	-0.154985	0.831411	-0.759439	-0.319023	0.305073	-0.753137	-0.338212	0.270763	-0.744499	-0.280886	0.244622	-0.748005	-0.268435	0.286735	-0.757849	-0.448626	0.076533	-0.676264	-0.281734	0.025114	-0.779207	-0.229384	0.042040	-0.704544	-0.194629	0.030020	-0.710777	
385	1.9250	-0.290876	1.585362	-0.547062	-0.247850	1.555031	-0.784203	-0.235129	1.553262	-0.347728	-0.151480	1.515865	-0.565555	-0.159864	1.055105	-0.445522	-0.169675	1.050201	-0.672865	-0.218436	1.119068	-0.393207	-0.249547	1.116624	-0.723504	-0.346556	1.088570	-0.491753	-0.354341	1.087562	-0.601877	-0.356690	1.092806	-0.545525	-0.214792	0.854830	-0.359906	-0.191985	0.800266	-0.348667	-0.131412	0.818240	-0.363618	-0.146861	0.876613	-0.376337	-0.300193	0.316088	-0.348305	-0.319799	0.279295	-0.358213	-0.263159	0.257409	-0.360376	-0.248070	0.294110	-0.354618	-0.439426	0.067619	-0.417017	-0.262184	0.025121	-0.335369	-0.214946	0.041663	-0.428630	-0.182073	0.030206	-0.424842	-0.221968	0.804651	-0.762806	-0.192149	0.751395	-0.772736	-0.132572	0.777711	-0.769063	-0.154575	0.832170	-0.759338	-0.319139	0.305497	-0.753304	-0.338306	0.271158	-0.744693	-0.280950	0.245097	-0.748097	-0.268529	0.287228	-0.757915	-0.448603	0.076989	-0.676760	-0.281674	0.025109	-0.779269	-0.229391	0.042031	-0.704566	-0.194644	0.030010	-0.710752	
386	1.9300	-0.290931	1.586670	-0.547139	-0.247857	1.556445	-0.784256	-0.235078	1.554658	-0.347824	-0.151422	1.517144	-0.565620	-0.158975	1.056507	-0.445534	-0.168736	1.051665	-0.672877	-0.217906	1.120331	-0.393143	-0.249018	1.117828	-0.723494	-0.345705	1.089722	-0.491726	-0.353407	1.088452	-0.601687	-0.355823	1.093893	-0.545523	-0.214415	0.856079	-0.359859	-0.191819	0.801458	-0.348535	-0.131159	0.819203	-0.363396	-0.146380	0.877625	-0.376197	-0.300667	0.316709	-0.348053	-0.320214	0.279751	-0.358057	-0.263447	0.258165	-0.359942	-0.248466	0.294853	-0.354204	-0.439240	0.068230	-0.416685	-0.262097	0.025083	-0.335298	-0.214930	0.041674	-0.428550	-0.182072	0.030210	-0.424815	-0.221780	0.805804	-0.762672	-0.192148	0.752435	-0.772592	-0.132477	0.778567	-0.769018	-0.154308	0.833088	-0.759296	-0.319545	0.305955	-0.753512	-0.338647	0.271573	-0.744942	-0.281236	0.245652	-0.748260	-0.268893	0.287811	-0.758049	-0.448622	0.077406	-0.677324	-0.281626	0.025084	-0.779365	-0.229433	0.042023	-0.704601	-0.194684	0.029996	-0.710733	
